<mxfile host="Electron" modified="2024-04-18T06:20:38.358Z" agent="Mozilla/5.0 (Macintosh; Intel Mac OS X 10_15_7) AppleWebKit/537.36 (KHTML, like Gecko) draw.io/24.1.0 Chrome/120.0.6099.109 Electron/28.1.0 Safari/537.36" etag="ykvIS6oXNYDyV_Q4RMMH" version="24.1.0" type="device">
  <diagram name="Page-1" id="0qjQd0bIqAvKOakUr5sT">
    <mxGraphModel dx="1434" dy="907" grid="1" gridSize="10" guides="1" tooltips="1" connect="1" arrows="1" fold="1" page="1" pageScale="1" pageWidth="850" pageHeight="1100" math="0" shadow="0">
      <root>
        <mxCell id="0" />
        <mxCell id="1" parent="0" />
        <mxCell id="B33dUFEOLYse5lPXIUkT-1" value="0&amp;nbsp; 0&amp;nbsp; 0&lt;div&gt;0&amp;nbsp; 0&amp;nbsp; 0&lt;/div&gt;&lt;div&gt;0&amp;nbsp; 0&amp;nbsp; 0&lt;/div&gt;" style="text;strokeColor=none;align=center;fillColor=none;html=1;verticalAlign=middle;whiteSpace=wrap;rounded=0;shadow=0;" vertex="1" parent="1">
          <mxGeometry x="110" y="380" width="50" height="50" as="geometry" />
        </mxCell>
        <mxCell id="B33dUFEOLYse5lPXIUkT-2" value="" style="shape=flexArrow;endArrow=classic;html=1;rounded=0;strokeColor=none;fillColor=#c6c3c3;gradientColor=#faf4f4;shadow=0;" edge="1" parent="1">
          <mxGeometry width="50" height="50" relative="1" as="geometry">
            <mxPoint x="175" y="404.5" as="sourcePoint" />
            <mxPoint x="275" y="404.5" as="targetPoint" />
          </mxGeometry>
        </mxCell>
        <mxCell id="B33dUFEOLYse5lPXIUkT-4" value="X&amp;nbsp; O&amp;nbsp; O&lt;br&gt;&lt;div&gt;&lt;span style=&quot;background-color: initial;&quot;&gt;O&lt;/span&gt;&amp;nbsp; O&amp;nbsp;&amp;nbsp;&lt;span style=&quot;background-color: initial;&quot;&gt;O&lt;/span&gt;&lt;/div&gt;&lt;div&gt;&lt;span style=&quot;background-color: initial;&quot;&gt;O&lt;/span&gt;&amp;nbsp; O&amp;nbsp;&amp;nbsp;&lt;span style=&quot;background-color: initial;&quot;&gt;O&lt;/span&gt;&lt;/div&gt;" style="text;strokeColor=none;align=center;fillColor=none;html=1;verticalAlign=middle;whiteSpace=wrap;rounded=0;shadow=0;" vertex="1" parent="1">
          <mxGeometry x="200" y="380" width="50" height="50" as="geometry" />
        </mxCell>
        <mxCell id="B33dUFEOLYse5lPXIUkT-6" value="1&amp;nbsp; 1&amp;nbsp; 0&lt;div&gt;1&amp;nbsp; 0&amp;nbsp; 0&lt;/div&gt;&lt;div&gt;0&amp;nbsp; 0&amp;nbsp; 0&lt;/div&gt;" style="text;strokeColor=none;align=center;fillColor=none;html=1;verticalAlign=middle;whiteSpace=wrap;rounded=0;shadow=0;" vertex="1" parent="1">
          <mxGeometry x="280" y="380" width="50" height="50" as="geometry" />
        </mxCell>
        <mxCell id="B33dUFEOLYse5lPXIUkT-9" value="" style="shape=flexArrow;endArrow=classic;html=1;rounded=0;strokeColor=none;fillColor=#c6c3c3;gradientColor=#faf4f4;" edge="1" parent="1">
          <mxGeometry width="50" height="50" relative="1" as="geometry">
            <mxPoint x="340" y="404.5" as="sourcePoint" />
            <mxPoint x="440" y="404.5" as="targetPoint" />
          </mxGeometry>
        </mxCell>
        <mxCell id="B33dUFEOLYse5lPXIUkT-10" value="O&amp;nbsp; O&amp;nbsp; O&lt;br&gt;&lt;div&gt;&lt;span style=&quot;background-color: initial;&quot;&gt;O&lt;/span&gt;&amp;nbsp; X&amp;nbsp;&amp;nbsp;&lt;span style=&quot;background-color: initial;&quot;&gt;O&lt;/span&gt;&lt;/div&gt;&lt;div&gt;&lt;span style=&quot;background-color: initial;&quot;&gt;O&lt;/span&gt;&amp;nbsp; O&amp;nbsp;&amp;nbsp;&lt;span style=&quot;background-color: initial;&quot;&gt;O&lt;/span&gt;&lt;/div&gt;" style="text;strokeColor=none;align=center;fillColor=none;html=1;verticalAlign=middle;whiteSpace=wrap;rounded=0;" vertex="1" parent="1">
          <mxGeometry x="365" y="380" width="50" height="50" as="geometry" />
        </mxCell>
        <mxCell id="B33dUFEOLYse5lPXIUkT-11" value="1&amp;nbsp; 0&amp;nbsp; 0&lt;div&gt;0&amp;nbsp; 1&amp;nbsp; 1&lt;/div&gt;&lt;div&gt;0&amp;nbsp; 1&amp;nbsp; 0&lt;/div&gt;" style="text;strokeColor=none;align=center;fillColor=none;html=1;verticalAlign=middle;whiteSpace=wrap;rounded=0;" vertex="1" parent="1">
          <mxGeometry x="450" y="380" width="50" height="50" as="geometry" />
        </mxCell>
        <mxCell id="B33dUFEOLYse5lPXIUkT-12" value="" style="shape=flexArrow;endArrow=classic;html=1;rounded=0;strokeColor=none;fillColor=#c6c3c3;gradientColor=#faf4f4;" edge="1" parent="1">
          <mxGeometry width="50" height="50" relative="1" as="geometry">
            <mxPoint x="510" y="404.5" as="sourcePoint" />
            <mxPoint x="610" y="404.5" as="targetPoint" />
          </mxGeometry>
        </mxCell>
        <mxCell id="B33dUFEOLYse5lPXIUkT-13" value="O&amp;nbsp; O&amp;nbsp; O&lt;br&gt;&lt;div&gt;&lt;span style=&quot;background-color: initial;&quot;&gt;X&lt;/span&gt;&amp;nbsp; O&amp;nbsp;&amp;nbsp;&lt;span style=&quot;background-color: initial;&quot;&gt;O&lt;/span&gt;&lt;/div&gt;&lt;div&gt;&lt;span style=&quot;background-color: initial;&quot;&gt;O&lt;/span&gt;&amp;nbsp; O&amp;nbsp;&amp;nbsp;&lt;span style=&quot;background-color: initial;&quot;&gt;O&lt;/span&gt;&lt;/div&gt;" style="text;strokeColor=none;align=center;fillColor=none;html=1;verticalAlign=middle;whiteSpace=wrap;rounded=0;" vertex="1" parent="1">
          <mxGeometry x="535" y="380" width="50" height="50" as="geometry" />
        </mxCell>
        <mxCell id="B33dUFEOLYse5lPXIUkT-14" value="0&amp;nbsp; 0&amp;nbsp; 0&lt;div&gt;1&amp;nbsp; 0&amp;nbsp; 1&lt;/div&gt;&lt;div&gt;1&amp;nbsp; 1&amp;nbsp; 0&lt;/div&gt;" style="text;strokeColor=none;align=center;fillColor=none;html=1;verticalAlign=middle;whiteSpace=wrap;rounded=0;" vertex="1" parent="1">
          <mxGeometry x="620" y="380" width="50" height="50" as="geometry" />
        </mxCell>
      </root>
    </mxGraphModel>
  </diagram>
</mxfile>
